<svg width="24" height="24" viewBox="0 0 24 24" fill="none" xmlns="http://www.w3.org/2000/svg">
<path d="M11.998 2C17.515 2 21.995 6.48 21.995 11.998C21.995 17.515 17.515 21.995 11.998 21.995C6.48 21.995 2 17.515 2 11.998C2 6.48 6.48 2 11.998 2ZM11.998 3.5C7.308 3.5 3.5 7.308 3.5 11.998C3.5 16.688 7.308 20.495 11.998 20.495C16.688 20.495 20.495 16.688 20.495 11.998C20.495 7.308 16.688 3.5 11.998 3.5ZM16.843 10.211C16.951 10.07 17 9.911 17 9.755C17 9.366 16.694 9 16.251 9H7.75C7.305 9 7 9.367 7 9.755C7 9.912 7.05 10.071 7.159 10.212C8.362 11.766 10.411 14.411 11.417 15.71C11.559 15.894 11.777 16 12.009 16C12.239 16 12.458 15.893 12.6 15.709L16.843 10.211ZM9.279 10.5H14.725L12.007 14.022L9.279 10.5Z" fill="white"/>
</svg>
